<svg width="128" height="128" viewBox="0 0 128 128" fill="none" xmlns="http://www.w3.org/2000/svg">
  <rect width="128" height="128" rx="32" fill="#10222B"/>
  <circle cx="64" cy="64" r="44" fill="#F1EDE4"/>
  <path d="M74.5 42.5C66.2 39.3 55.1 41.5 49.1 48.8C43.3 55.8 42 66 46.1 74.7C50.6 84.2 60.4 88.6 71.1 86.9C77.8 85.8 83.5 81.6 86.5 75.4L76.2 71.9C74.5 75 71.3 77 67.6 77C61.7 77 57 72.1 57 66C57 59.9 61.7 55 67.7 55C70.8 55 73.7 56.3 75.8 58.6H67.3V67.7H88V63.9C88 54.7 82.8 45.7 74.5 42.5Z" fill="#10222B"/>
</svg>
